<svg xmlns="http://www.w3.org/2000/svg" xmlns:xlink="http://www.w3.org/1999/xlink" width="23" height="19" viewBox="0 0 23 19">
    <defs>
        <path id="a" d="M1 0h3.426a1 1 0 0 1 1 1v3a1 1 0 0 1-1 1H1a1 1 0 0 1-1-1V1a1 1 0 0 1 1-1zm0 7h3.426a1 1 0 0 1 1 1v3a1 1 0 0 1-1 1H1a1 1 0 0 1-1-1V8a1 1 0 0 1 1-1zm8.787-7h3.426a1 1 0 0 1 1 1v3a1 1 0 0 1-1 1H9.787a1 1 0 0 1-1-1V1a1 1 0 0 1 1-1zm0 7.097h3.426a1 1 0 0 1 1 1v3a1 1 0 0 1-1 1H9.787a1 1 0 0 1-1-1v-3a1 1 0 0 1 1-1zM18.574 0H22a1 1 0 0 1 1 1v3a1 1 0 0 1-1 1h-3.426a1 1 0 0 1-1-1V1a1 1 0 0 1 1-1zm0 7.097H22a1 1 0 0 1 1 1v3a1 1 0 0 1-1 1h-3.426a1 1 0 0 1-1-1v-3a1 1 0 0 1 1-1zM1 14h3.426a1 1 0 0 1 1 1v3a1 1 0 0 1-1 1H1a1 1 0 0 1-1-1v-3a1 1 0 0 1 1-1zm8.682 0h3.426a1 1 0 0 1 1 1v3a1 1 0 0 1-1 1H9.682a1 1 0 0 1-1-1v-3a1 1 0 0 1 1-1zm8.892 0H22a1 1 0 0 1 1 1v3a1 1 0 0 1-1 1h-3.426a1 1 0 0 1-1-1v-3a1 1 0 0 1 1-1z"/>
    </defs>
    <g fill="none" fill-rule="evenodd">
        <mask id="b" fill="#fff">
            <use xlink:href="#a"/>
        </mask>
        <g fill="#484848" mask="url(#b)">
            <path d="M0 0h23v19H0z"/>
        </g>
    </g>
</svg>
